<?xml version="1.0" encoding="UTF-8" standalone="no"?>
<!-- Created with Inkscape (http://www.inkscape.org/) -->

<svg
   width="191.65121mm"
   height="359.29514mm"
   viewBox="0 0 191.65121 359.29514"
   version="1.1"
   id="svg5843"
   inkscape:version="1.2.2 (b0a8486541, 2022-12-01)"
   sodipodi:docname="nicopose.svg"
   xmlns:inkscape="http://www.inkscape.org/namespaces/inkscape"
   xmlns:sodipodi="http://sodipodi.sourceforge.net/DTD/sodipodi-0.dtd"
   xmlns="http://www.w3.org/2000/svg"
   xmlns:svg="http://www.w3.org/2000/svg">
  <sodipodi:namedview
     id="namedview5845"
     pagecolor="#ffffff"
     bordercolor="#000000"
     borderopacity="0.25"
     inkscape:showpageshadow="2"
     inkscape:pageopacity="0.0"
     inkscape:pagecheckerboard="0"
     inkscape:deskcolor="#d1d1d1"
     inkscape:document-units="mm"
     showgrid="false"
     inkscape:zoom="0.29519479"
     inkscape:cx="447.16236"
     inkscape:cy="702.92568"
     inkscape:window-width="1366"
     inkscape:window-height="688"
     inkscape:window-x="0"
     inkscape:window-y="0"
     inkscape:window-maximized="1"
     inkscape:current-layer="layer1" />
  <defs
     id="defs5840" />
  <g
     inkscape:label="Capa 1"
     inkscape:groupmode="layer"
     id="layer1"
     transform="translate(12.32609,47.551388)">
    <path
       style="fill:#2f2f2f;fill-opacity:1;stroke:#262626;stroke-width:1.514;stroke-linecap:round;stroke-linejoin:round;stroke-dasharray:none;stroke-opacity:1"
       d="m 125.74639,210.73672 c -4.02656,22.23046 -11.13508,28.3083 -32.637402,38.15015 -14.34571,6.56619 -41.71912,10.11651 -57.11705,10.0907 -21.2248,-0.0356 -24.46325,-0.6566 -36.55709004,-4.85081 -16.28247996,-5.64684 -10.50532996,-17.9772 -7.54131996,-22.40173 1.9496,-2.91027 18.27666,0.99419 23.41984,4.54193 0,0 3.93455,3.58054 20.93945,5.81239 18.92536,2.48391 36.70106,-1.33588 42.99665,-4.82169 36.890662,-20.42604 46.496922,-26.52094 46.496922,-26.52094 z"
       id="path5162"
       sodipodi:nodetypes="csssssssc"
       inkscape:export-filename="nicopose.png"
       inkscape:export-xdpi="96"
       inkscape:export-ydpi="96" />
    <g
       id="g5172"
       transform="matrix(-1,0,0,1,249.76168,-90.310029)">
      <rect
         style="fill:#1b1b1b;fill-opacity:1;stroke:#101010;stroke-width:2.18777;stroke-linecap:round;stroke-linejoin:round;stroke-dasharray:none;stroke-opacity:1"
         id="rect5164"
         width="31.784391"
         height="92.391762"
         x="99.604584"
         y="293.99643"
         ry="4.8783236"
         transform="matrix(0.99990039,0.01411441,-0.0252005,0.99968242,0,0)" />
      <path
         style="fill:#3e3e3e;fill-opacity:1;stroke:#2f2f2f;stroke-width:1.59725;stroke-linecap:round;stroke-linejoin:round;stroke-dasharray:none;stroke-opacity:1"
         id="path5166"
         sodipodi:type="arc"
         sodipodi:cx="193.19063"
         sodipodi:cy="379.32297"
         sodipodi:rx="22.741201"
         sodipodi:ry="14.357005"
         sodipodi:start="3.4726293"
         sodipodi:end="3.4528547"
         sodipodi:open="true"
         sodipodi:arc-type="arc"
         d="m 171.68414,374.6566 a 22.741201,14.357005 0 0 1 28.7915,-8.93404 22.741201,14.357005 0 0 1 14.29351,18.1323 22.741201,14.357005 0 0 1 -28.65019,9.11332 22.741201,14.357005 0 0 1 -14.57677,-18.04219"
         transform="matrix(0.99505725,0.09930293,-0.24275083,0.97008867,0,0)" />
      <path
         style="fill:#1b1b1b;fill-opacity:1;stroke:#2f2f2f;stroke-width:1.514;stroke-linecap:round;stroke-linejoin:round;stroke-dasharray:none;stroke-opacity:1"
         d="m 84.797371,396.89227 v -6.50049"
         id="path5168" />
      <path
         style="fill:#1b1b1b;fill-opacity:1;stroke:#2f2f2f;stroke-width:1.66468;stroke-linecap:round;stroke-linejoin:round;stroke-dasharray:none;stroke-opacity:1"
         d="m 93.666049,399.71735 v -7.85876"
         id="path5170" />
    </g>
    <g
       id="g5190"
       transform="translate(-4.548182,-90.310029)">
      <rect
         style="fill:#1b1b1b;fill-opacity:1;stroke:#101010;stroke-width:2.18777;stroke-linecap:round;stroke-linejoin:round;stroke-dasharray:none;stroke-opacity:1"
         id="rect5182"
         width="31.784391"
         height="92.391762"
         x="99.604584"
         y="293.99643"
         ry="4.8783236"
         transform="matrix(0.99990039,0.01411441,-0.0252005,0.99968242,0,0)" />
      <path
         style="fill:#3e3e3e;fill-opacity:1;stroke:#2f2f2f;stroke-width:1.59725;stroke-linecap:round;stroke-linejoin:round;stroke-dasharray:none;stroke-opacity:1"
         id="path5184"
         sodipodi:type="arc"
         sodipodi:cx="193.19063"
         sodipodi:cy="379.32297"
         sodipodi:rx="22.741201"
         sodipodi:ry="14.357005"
         sodipodi:start="3.4726293"
         sodipodi:end="3.4528547"
         sodipodi:open="true"
         sodipodi:arc-type="arc"
         d="m 171.68414,374.6566 a 22.741201,14.357005 0 0 1 28.7915,-8.93404 22.741201,14.357005 0 0 1 14.29351,18.1323 22.741201,14.357005 0 0 1 -28.65019,9.11332 22.741201,14.357005 0 0 1 -14.57677,-18.04219"
         transform="matrix(0.99505725,0.09930293,-0.24275083,0.97008867,0,0)" />
      <path
         style="fill:#1b1b1b;fill-opacity:1;stroke:#2f2f2f;stroke-width:1.514;stroke-linecap:round;stroke-linejoin:round;stroke-dasharray:none;stroke-opacity:1"
         d="m 84.797371,396.89227 v -6.50049"
         id="path5186" />
      <path
         style="fill:#1b1b1b;fill-opacity:1;stroke:#2f2f2f;stroke-width:1.66468;stroke-linecap:round;stroke-linejoin:round;stroke-dasharray:none;stroke-opacity:1"
         d="m 93.666049,399.71735 v -7.85876"
         id="path5188" />
    </g>
    <g
       id="g5206"
       transform="translate(-13.513092,-90.554242)">
      <path
         id="path5196"
         style="fill:#005384;stroke:#00466f;stroke-width:1.514;stroke-linecap:round;stroke-linejoin:round"
         d="m 112.15928,176.35307 h 53.69133 c 11.00316,0 19.89305,8.85819 19.86129,19.8613 l -0.27022,93.62479 c -0.0318,11.00311 -8.85872,19.74699 -19.86129,19.8613 l -58.1252,0.60391 c -11.002563,0.11431 -20.409911,-8.87183 -19.861295,-19.8613 l 4.704086,-94.2287 c 0.548617,-10.98948 8.858139,-19.8613 19.861299,-19.8613 z"
         sodipodi:nodetypes="sssssssss" />
      <rect
         style="fill:#005384;fill-opacity:1;stroke:#00466f;stroke-width:1.04506;stroke-linecap:round;stroke-linejoin:round;stroke-dasharray:none;stroke-opacity:1"
         id="rect5198"
         width="5.6504951"
         height="36.067448"
         x="123.73736"
         y="176.59921"
         ry="4.5970931" />
      <path
         style="fill:#005384;fill-opacity:1;stroke:#00466f;stroke-width:0.826374;stroke-linecap:round;stroke-linejoin:round;stroke-dasharray:none;stroke-opacity:1"
         id="path5200"
         sodipodi:type="arc"
         sodipodi:cx="126.1857"
         sodipodi:cy="209.84827"
         sodipodi:rx="4.3344226"
         sodipodi:ry="3.8106318"
         sodipodi:start="3.4726293"
         sodipodi:end="3.4528547"
         sodipodi:open="true"
         sodipodi:arc-type="arc"
         d="m 122.08661,208.60972 a 4.3344226,3.8106318 0 0 1 5.4876,-2.37127 4.3344226,3.8106318 0 0 1 2.72431,4.81267 4.3344226,3.8106318 0 0 1 -5.46066,2.41886 4.3344226,3.8106318 0 0 1 -2.7783,-4.78876" />
      <rect
         style="fill:#005384;fill-opacity:1;stroke:#00466f;stroke-width:1.04506;stroke-linecap:round;stroke-linejoin:round;stroke-dasharray:none;stroke-opacity:1"
         id="rect5202"
         width="5.6504951"
         height="36.067448"
         x="143.30081"
         y="176.59921"
         ry="4.5970931" />
      <path
         style="fill:#005384;fill-opacity:1;stroke:#00466f;stroke-width:0.826374;stroke-linecap:round;stroke-linejoin:round;stroke-dasharray:none;stroke-opacity:1"
         id="path5204"
         sodipodi:type="arc"
         sodipodi:cx="145.91884"
         sodipodi:cy="209.84827"
         sodipodi:rx="4.3344226"
         sodipodi:ry="3.8106318"
         sodipodi:start="3.4726293"
         sodipodi:end="3.4528547"
         sodipodi:open="true"
         sodipodi:arc-type="arc"
         d="m 141.81975,208.60972 a 4.3344226,3.8106318 0 0 1 5.4876,-2.37127 4.3344226,3.8106318 0 0 1 2.72431,4.81267 4.3344226,3.8106318 0 0 1 -5.46066,2.41886 4.3344226,3.8106318 0 0 1 -2.77831,-4.78876" />
    </g>
    <path
       style="fill:#3e3e3e;fill-opacity:1;stroke:#2f2f2f;stroke-width:1.514;stroke-linecap:round;stroke-linejoin:round;stroke-dasharray:none;stroke-opacity:1"
       d="m 70.572388,0.34428426 c 0.0537,-0.411059 0.10731,-0.822102 0.16097,-1.233161 0.0544,-0.21775196 0.13159,-0.43105996 0.16333,-0.65325596 0.0231,-0.161676 -0.0163,-0.327441 0,-0.489943 0.0247,-0.247474 0.1318,-0.481321 0.16331,-0.728015 0.0582,-0.455801 0,-0.962483 0,-1.421638 0,-0.520324 0.0662,-1.0976167 0,-1.610871 -0.13852,-1.072815 -0.01,0.3894073 -0.24497,-0.863443 -0.0666,-0.354787 0,-1.000912 0,-1.356138 0,-0.567715 0.0472,-1.149279 0,-1.714824 -0.0137,-0.16499 -0.0679,-0.3249493 -0.0817,-0.4899393 -0.0362,-0.43401 0,-0.871021 0,-1.30653 v -2.858021 c 0,-0.5406 0.0299,-1.09492 0,-1.63315 -0.0122,-0.219109 -0.0634,-0.43458 -0.0816,-0.653269 -0.0911,-1.09379 0.0644,-2.2106 0,-3.30635 -0.008,-0.13856 -0.0663,-0.27035 -0.0817,-0.40829 -0.012,-0.108221 0.0108,-0.21829 0,-0.32664 -0.0996,-0.995561 -0.0817,-0.0625 -0.0817,-0.816571 v -3.59294 c 0,-0.48173 0.048,-0.99014 0,-1.46984 -0.0165,-0.16475 -0.0652,-0.3252 -0.0817,-0.48995 -0.0368,-0.3677 0,-0.77563 0,-1.14321 v -2.688 -1.79647 c 0,-0.21093 -0.0272,-0.42362 0,-0.63279 0.0321,-0.24657 0.13248,-0.48111 0.16332,-0.72783 0.0615,-0.49189 -0.0657,-0.96773 0.0817,-1.4564 0.0351,-0.11654 0.12057,-0.21265 0.16332,-0.32663 0.0813,-0.21681 0.12297,-0.61491 0.16331,-0.81657 1e-5,-9e-5 0.16331,-0.65318 0.16332,-0.65327 0.0664,-0.7301 -0.0721,-0.79824 0.16331,-1.5515 0.077,-0.24647 0.19739,-0.48112 0.24497,-0.73492 0.0737,-0.39322 0,-0.98257 0,-1.38818 v -2.48432 c 0,-0.35121 -0.0642,-1.20026 0,-1.49429 0.0897,-0.41116 0.0843,-0.0187 0.31492,-0.52637 0.0272,-0.06 0.0632,-0.73523 0.0756,-0.83873 0.0806,-0.67486 0.0759,-0.17901 0.0759,-0.42344 v 0.0995 c 0,-0.0453 -0.0445,-0.12748 0,-0.13578 0.16652,-0.031 0.16108,0.30119 0.27187,0.42932 0.089,0.10295 0.23702,0.14254 0.32664,0.24497 0.10451,0.11944 0.15272,0.27914 0.24497,0.40829 0.15662,0.21927 0.39259,0.37021 0.5716,0.5716 0.0904,0.10173 0.15786,0.22208 0.24498,0.32663 0.0493,0.0591 0.12251,0.098 0.16332,0.16332 0.32086,0.51337 0.12649,0.37261 0.40828,0.73492 0.40411,0.51956 0.91389,0.85531 1.30653,1.38818 0.73866,1.00247 0.48083,0.85632 1.22487,1.71482 4e-4,4e-4 0.97954,0.97948 0.97989,0.97989 0.43564,0.52277 0.82935,1.07943 1.22487,1.63316 0.61971,0.8676 1.1901,1.76636 1.71481,2.69471 0.25251,0.44673 0.60328,1.15384 0.89824,1.63316 1.0178,1.54496 1.2205,2.11592 1.63316,2.77637 0.46354,0.74165 0.94574,1.50595 1.46984,2.20475 0.33125,0.44167 0.70352,0.82288 0.97989,1.30653 0.25057,0.43848 0.5381,0.99746 0.73492,1.46984 0.35233,0.84559 -0.0721,0.15966 0.48995,1.143211 1.19912,1.77348 2.35202,4.47923 3.83793,7.10423 0.1489,0.26058 0.4244,0.40791 0.57161,0.65327 0.16161,0.26935 0.23042,0.67198 0.40597,0.97294 0.40153,0.688329 0.92662,1.295819 1.22487,2.041449 0.4564,1.141001 -0.25628,-0.47319 0.0817,0.653261 0.15444,0.51481 0.61022,1.11726 0.81658,1.63316 0.13614,0.34035 0.0993,0.7203 0.24497,1.05931 0.31944,0.74342 0.71267,1.5150013 1.14096,2.2002723 0.21229,0.339654 0.23552,0.260617 0.4083,0.571608 0.14778,0.266022 0.23947,0.563371 0.40828,0.816575 0.0427,0.06405 0.11857,0.100666 0.16331,0.163312 0.50848,0.711875 0.0199,0.113559 0.4083,0.734928 0.26244,0.419908 0.68482,0.6752475 0.97989,1.0615503 0.0927,0.121325 0.15881,0.260798 0.2392,0.3905877 0.15493,0.250146 0.0635,0.238184 0.2393,0.633799 0.0399,0.08968 0.13025,0.152577 0.16332,0.244976 0.0237,0.06632 0,0.140911 0,0.211362 0,0.669472 -0.0967,0.592003 0.24497,1.138695 0.0408,0.06526 0.11659,0.102127 0.16331,0.163312 0.1976,0.258747 0.33233,0.524996 0.55412,0.781471 0.205,0.237065 0.58094,0.408969 0.65327,0.729106 0.015,0.06632 -0.0164,0.13796496 0,0.20395796 0.005,0.01938 0.0602,-0.01454 0.0506,-0.03195 -0.0707,-0.128389 -0.25106,-0.23801796 -0.21927,-0.38107896 0.0105,-0.04739 0.0822,-0.05814 0.13026,-0.06511 0.185182,-0.02687 0.374232,0 0.561342,0 h 1.78906 c 0.53917,0 1.335,-0.0767 1.83137,0 0.097,0.01499 0.16332,0.108872 0.24498,0.163312 0.10888,0.02725 0.21496,0.07048 0.32663,0.08166 0.27084,0.0271 0.54967,-0.05337 0.81658,0 0.1688,0.03376 0.32114,0.12955496 0.48995,0.16331196 0.21352,0.0427 0.43973,-0.0427 0.65326,0 0.1688,0.03377 0.32057,0.132523 0.48994,0.163312 0.1339,0.02438 0.2722,0 0.40829,0 h 1.63316 c 0.77519,0 1.59375,-0.07041 2.36807,0 0.69933,0.06359 1.35745,0.33795 2.04145,0.489944 0.48218,0.107154 0.97792,0.281912 1.46985,0.326632 1.30805,0 -0.15357,-0.03959 0.81658,0.08166 0.10803,0.01348 0.21986,-0.02135 0.32662,0 1.06649,0.355491 0.0186,0.06359 0.81658,0.16332 0.21508,0.02688 0.64746,0.194238 0.81658,0.244975 0.26588,0.07976 0.5507,0.08355 0.81658,0.163313 0.1166,0.03498 0.20902,0.131947 0.32663,0.163319 0.45402,0.12106104 0.91935,0.21371704 1.38819,0.24497604 2.28461,0.152312 -0.29539,-0.08462 1.14321,0 0.32719,0.01923 0.65264,0.06344 0.97989,0.08165 0.16307,0.0091 0.32664,0 0.48995,0 0.32663,0 0.65383,-0.01915 0.97989,0 0.35741,0.02105 0.70478,0.13359 1.06156,0.16332 0.80629,0.06723 -0.28884,-0.134173 0.89823,0.08166 0.22083,0.04012 0.42993,0.140979 0.65327,0.16332 0.80849,0.08085 1.64125,-0.08085 2.44974,0 0.11167,0.01113 0.21775,0.05443 0.32663,0.08165 0.27219,0.02725 0.54371,0.06215 0.81657,0.08166 0.2172,0.01552 0.44065,-0.04701 0.65327,0 0.51478,0.113853 0.25425,0.195282 0.72795,0.242651 0.57559,0.05754 1.22949,-0.0218 1.79648,0 0.38175,0.01469 0.76164,0.06261 1.14321,0.08166 0.16311,0.0082 0.32719,-0.01355 0.48994,0 0.16499,0.0137 0.32475,0.07063 0.48995,0.08165 0.48181,0.0321 1.24712,-0.08503 1.71482,0 0.14421,0.02619 0.26369,0.139223 0.40828,0.16332 0.65659,0.109425 1.63188,-0.109092 2.28643,0 0.33962,0.05663 0.64228,0.25911 0.97989,0.326632 2.59088,0.07374 3.56615,-0.09413 6.00523,-0.09033 0.0544,-0.0023 2.23034,-0.513882 2.23034,-0.513882 1.2311,-0.462046 2.1509,-1.43218304 2.40553,-2.19609004 0.21776,-0.653264 0.43551,-1.30652696 0.65327,-1.95979096 0.0544,-0.163312 0.13897,-0.319522 0.16331,-0.489943 0.0308,-0.215572 -0.0401,-0.439244 0,-0.653271 0.0981,-0.523262 0.43474,-1.07075 0.65326,-1.551495 0.3087,-0.6791247 0.51102,-1.396072 0.89825,-2.041447 0.56846,-0.947417 0.37607,-0.456996 0.81657,-1.306527 0.54177,-1.044843 1.01788,-2.1738263 1.63316,-3.1846563 0.20412,-0.33532 0.44663,-0.64611 0.65326,-0.97989 0.41749,-0.6744 0.80376,-1.36768 1.22486,-2.04145 0.10404,-0.16644 0.23887,-0.31439 0.32665,-0.48995 0.077,-0.15398 0.0905,-0.33394 0.1633,-0.48994 0.11851,-0.25396 0.27642,-0.48765 0.4083,-0.73493 0.0859,-0.16111 0.14369,-0.33802 0.24497,-0.48994 0.11792,-0.17689 0.27694,-0.32278 0.40829,-0.48995 0.16817,-0.21402 0.31991,-0.44072 0.48995,-0.65326 0.15677,-0.19596 0.35521,-0.35989 0.48994,-0.5716 1.45909,-2.29284 0.16227,-0.45314 0.89825,-1.71482 0.44089,-0.75584 0.97118,-1.48449 1.46983,-2.20476 0.35656,-0.51503 0.72123,-1.00566 1.14322,-1.46985 0.61957,-0.68151 1.36054,-1.26068 1.95978,-1.95978 0.43559,-0.50818 0.71843,-1.12342 1.14322,-1.63316 0.24643,-0.29572 0.58561,-0.50863 0.81658,-0.81657 0.0731,-0.0974 0.10068,-0.22225 0.1633,-0.32664 0.13294,-0.31199 0.39551,-0.53483 0.5716,-0.81658 0.2798,-0.44768 0.0495,-0.31323 0.48996,-0.81657 0.25348,-0.2897 0.57611,-0.516 0.81658,-0.81659 0.0916,-0.11445 0.0978,-0.27718 0.16331,-0.40828 0.0709,-0.14196 0.174,-0.26634 0.24498,-0.40829 0.0927,-0.18541 0.14571,-0.38962 0.24497,-0.5716 0.0652,-0.11948 0.16692,-0.21514 0.24497,-0.32663 0.25978,-0.37114 0.47161,-0.77459 0.73492,-1.14322 0.12357,-0.17299 0.28638,-0.31579 0.40829,-0.48994 0.0698,-0.0997 0.0935,-0.22691 0.16332,-0.32663 0.15169,-0.35422 0.5152,-0.52363 0.73492,-0.81659 0.0731,-0.0974 0.0988,-0.2234 0.16332,-0.32663 0.18454,-0.29529 0.43013,-0.63048 0.65325,-0.89824 0.25279,-0.30334 0.14425,-0.0664 0.57162,-0.40829 0.24047,-0.19237 0.45612,-0.41668 0.65326,-0.65326 0.15879,-0.19055 0.13096,-0.26852 0.32663,-0.40829 0.36345,-0.2596 0.44004,-0.27672 0.73492,-0.5716 0.29281,-0.2928 0.55965,-0.57706 0.81658,-0.89824 0.2861,-0.35762 0.70307,-0.61528 0.97989,-0.97989 0.0341,-0.045 0.0642,-0.0963 0.0758,-0.15161 1.5e-4,-7.6e-4 -0.0452,-0.60795 0.18231,-0.42325 0.0132,0.0108 0.0152,0.18142 0.0518,0.25453 0.25685,0.51373 0.4053,1.02967 0.3158,1.61149 -0.34518,1.08836 -0.2487,1.96238 -0.245,3.26631 0,1.31207 0.0698,2.689 -0.0816,4.00123 -0.24407,2.11535 -0.14176,-0.59011 -0.32664,2.36808 -0.26265,4.20258 0.0269,0.82731 -0.0816,4.08289 -0.17427,0.815 0.0193,1.71523 -0.0817,2.44974 -0.2517,1.67801 -0.23352,0.32954 -0.32663,1.63316 -0.0291,0.40646 0.0484,0.91943 0,1.30652 -0.0213,0.17083 -0.11475,0.3248 -0.16333,0.48995 -0.27844,1.13767 -3.43255,3.2935 -2.19122,4.53659 l 1.78293,1.50609 c 0.16636,0.14053 0.0323,0.43792 0,0.65327 -0.05,0.33295 -0.19502,0.64693 -0.24497,0.97989 -0.0323,0.21534 0.0216,0.43659 0,0.65326 -0.10992,1.09932 -0.4539,2.1677543 -0.5716,3.2663183 -0.16501,1.540154 -0.0817,3.107502 -0.0817,4.654492 0,0.371465 0.0368,0.775521 0,1.143215 -0.0263,0.262797 -0.13704,0.553779 -0.16332,0.816576 -0.0419,0.41834896 0.0219,0.87919096 0,1.29275596 -0.0145,0.273168 -0.0622,0.543725 -0.0817,0.816583 -0.025,0.34965404 0.0435,0.71189004 0,1.05931804 -0.0803,0.640613 -0.36594,1.232517 -0.48763,1.859859 -0.0283,0.146051 0.0174,0.298575 0,0.446322 -0.0188,0.160057 -0.12268,0.300036 -0.15536,0.457852 -0.0284,0.137103 0,0.338495 0,0.475408 0,0.07563 0.0402,0.594865 -0.0329,0.594865 C 170.78314,105.96975 111.84866,84.988916 111.84866,84.988916 v 0 C 67.475858,75.635605 70.572388,0.34428426 70.572388,0.34428426 Z"
       id="path5208"
       sodipodi:nodetypes="ccssssssssssssssssssssscsssssscsssssscccsssssssssccssccsssccssssssssssssssssssssccscssscsssscsssscscssscssssccssccssssccsssscccssssssssssssssssssssssscssscssssscsssssssssssccccscccsccssscsssssscssssccsc" />
    <path
       style="fill:#ffffff;fill-opacity:1;stroke:none;stroke-width:1.60014;stroke-linecap:round;stroke-linejoin:round;stroke-dasharray:none;stroke-opacity:1"
       id="path5210"
       sodipodi:type="arc"
       sodipodi:cx="106.9063"
       sodipodi:cy="27.04015"
       sodipodi:rx="13.22535"
       sodipodi:ry="17.445597"
       sodipodi:start="3.4726293"
       sodipodi:end="3.4528547"
       sodipodi:open="true"
       sodipodi:arc-type="arc"
       d="m 94.399011,21.36992 a 13.22535,17.445597 0 0 1 16.743959,-10.856004 13.22535,17.445597 0 0 1 8.31251,22.033065 13.22535,17.445597 0 0 1 -16.66177,11.07385 13.22535,17.445597 0 0 1 -8.47725,-21.923575" />
    <path
       style="fill:#5b2d00;fill-opacity:1;stroke:none;stroke-width:1.16442;stroke-linecap:round;stroke-linejoin:round;stroke-opacity:1"
       id="path5212"
       sodipodi:type="arc"
       sodipodi:cx="106.9063"
       sodipodi:cy="27.04015"
       sodipodi:rx="8.273591"
       sodipodi:ry="12.574979"
       sodipodi:start="3.4726293"
       sodipodi:end="3.4528547"
       sodipodi:open="true"
       sodipodi:arc-type="arc"
       d="m 99.081919,22.952985 a 8.273591,12.574979 0 0 1 10.474781,-7.825127 8.273591,12.574979 0 0 1 5.20019,15.881676 8.273591,12.574979 0 0 1 -10.42336,7.982154 8.273591,12.574979 0 0 1 -5.303253,-15.802755" />
    <path
       style="fill:#000000;fill-opacity:1;stroke:none;stroke-width:0.947869;stroke-linecap:round;stroke-linejoin:round;stroke-opacity:1"
       id="path5214"
       sodipodi:type="arc"
       sodipodi:cx="106.9063"
       sodipodi:cy="27.04015"
       sodipodi:rx="6.3493752"
       sodipodi:ry="10.85799"
       sodipodi:start="3.4726293"
       sodipodi:end="3.4528547"
       sodipodi:open="true"
       sodipodi:arc-type="arc"
       d="m 100.90166,23.511047 a 6.3493752,10.85799 0 0 1 8.03863,-6.756684 6.3493752,10.85799 0 0 1 3.99077,13.713191 6.3493752,10.85799 0 0 1 -7.99917,6.89227 6.3493752,10.85799 0 0 1 -4.06986,-13.645045" />
    <path
       style="fill:#ffffff;fill-opacity:1;stroke:none;stroke-width:1.60014;stroke-linecap:round;stroke-linejoin:round;stroke-dasharray:none;stroke-opacity:1"
       id="path5216"
       sodipodi:type="arc"
       sodipodi:cx="138.6563"
       sodipodi:cy="27.04015"
       sodipodi:rx="13.22535"
       sodipodi:ry="17.445597"
       sodipodi:start="3.4726293"
       sodipodi:end="3.4528547"
       sodipodi:open="true"
       sodipodi:arc-type="arc"
       d="m 126.149,21.36992 a 13.22535,17.445597 0 0 1 16.74396,-10.856004 13.22535,17.445597 0 0 1 8.31252,22.033065 13.22535,17.445597 0 0 1 -16.66177,11.07385 13.22535,17.445597 0 0 1 -8.47726,-21.923575" />
    <path
       style="fill:#5b2d00;fill-opacity:1;stroke:none;stroke-width:1.16442;stroke-linecap:round;stroke-linejoin:round;stroke-opacity:1"
       id="path5218"
       sodipodi:type="arc"
       sodipodi:cx="138.6563"
       sodipodi:cy="27.04015"
       sodipodi:rx="8.273591"
       sodipodi:ry="12.574979"
       sodipodi:start="3.4726293"
       sodipodi:end="3.4528547"
       sodipodi:open="true"
       sodipodi:arc-type="arc"
       d="m 130.83191,22.952985 a 8.273591,12.574979 0 0 1 10.47478,-7.825127 8.273591,12.574979 0 0 1 5.20019,15.881676 8.273591,12.574979 0 0 1 -10.42336,7.982154 8.273591,12.574979 0 0 1 -5.30325,-15.802755" />
    <path
       style="fill:#000000;fill-opacity:1;stroke:none;stroke-width:0.947869;stroke-linecap:round;stroke-linejoin:round;stroke-opacity:1"
       id="path5220"
       sodipodi:type="arc"
       sodipodi:cx="138.6563"
       sodipodi:cy="27.04015"
       sodipodi:rx="6.3493752"
       sodipodi:ry="10.85799"
       sodipodi:start="3.4726293"
       sodipodi:end="3.4528547"
       sodipodi:open="true"
       sodipodi:arc-type="arc"
       d="m 132.65165,23.511047 a 6.3493752,10.85799 0 0 1 8.03863,-6.756684 6.3493752,10.85799 0 0 1 3.99077,13.713191 6.3493752,10.85799 0 0 1 -7.99917,6.89227 6.3493752,10.85799 0 0 1 -4.06986,-13.645045" />
    <path
       style="fill:none;fill-opacity:1;stroke:#000000;stroke-width:1.514;stroke-linecap:round;stroke-linejoin:round;stroke-dasharray:none;stroke-opacity:1"
       d="m 110.9668,141.20931 9.01736,9.01736 -8.90691,7.71914"
       id="path5226"
       sodipodi:nodetypes="ccc" />
    <path
       style="fill:none;fill-opacity:1;stroke:#000000;stroke-width:1.514;stroke-linecap:round;stroke-linejoin:round;stroke-dasharray:none;stroke-opacity:1"
       d="m 125.1388,157.95467 h 9.34096"
       id="path5228" />
    <path
       style="fill:none;fill-opacity:1;stroke:#2f2f2f;stroke-width:0.724333;stroke-linecap:round;stroke-linejoin:round;stroke-dasharray:none;stroke-opacity:1"
       d="m 131.96106,67.267655 c 1.04707,0.617402 1.95234,0.999823 2.73497,1.201725 0.84662,0.218413 1.54973,0.225575 2.13354,0.09043 1.16944,-0.270706 1.86024,-1.112403 2.26724,-1.970939 0.51912,-1.095031 0.57655,-2.217457 0.57655,-2.217457"
       id="path5230"
       sodipodi:nodetypes="csssc" />
    <rect
       style="fill:#3e3e3e;fill-opacity:1;stroke:none;stroke-width:2.052;stroke-linecap:round;stroke-linejoin:round;stroke-opacity:1"
       id="rect5303"
       width="28.759666"
       height="11.065512"
       x="93.371483"
       y="-7.9214859"
       transform="rotate(9.0099872)" />
    <rect
       style="fill:#3e3e3e;fill-opacity:1;stroke:none;stroke-width:2.052;stroke-linecap:round;stroke-linejoin:round;stroke-opacity:1"
       id="rect5443"
       width="28.759666"
       height="11.065512"
       x="-147.38216"
       y="25.536222"
       transform="matrix(-0.98766106,0.15660663,0.15660663,0.98766106,0,0)" />
    <path
       style="fill:#3e3e3e;fill-opacity:1;stroke:#2f2f2f;stroke-width:1.514;stroke-linecap:round;stroke-linejoin:round;stroke-dasharray:none;stroke-opacity:1"
       d="m 99.338618,2.4887383 c -0.0996,0.732925 -0.0924,1.468972 -0.0359,2.203664 0.0129,0.167452 0.0132,0.336153 0.0359,0.502558 0.0333,0.244416 0.11966,0.478625 0.17949,0.717936 0.16222,0.648922 0.33363,1.290045 0.610242,1.902539 0.0881,0.195077 0.19145,0.3829 0.28718,0.57435 0.0826,0.165224 0.28158,0.57876 0.39487,0.753835 0.065,0.100459 0.15017,0.186851 0.21538,0.287178 0.31309,0.48168 0.23615,0.52207 0.68204,1.0051097 0.16019,0.17355 1.08206,0.85008 1.1487,0.89742 1.02779,0.73028 0.26918,0.22111 1.00511,0.57436 0.58274,0.27971 0.38716,0.24101 0.86153,0.43076 0.4155,0.1662 0.94616,0.36666 1.39998,0.21538 0.2709,-0.0903 0.5251,-0.3003 0.75383,-0.46666 0.20008,-0.14551 0.36433,-0.32843 0.53846,-0.50256 0.0598,-0.0598 0.12872,-0.11179 0.17948,-0.17948 0.26251,-0.35001 0.50139,-1.02764 0.61025,-1.4358797 0.0781,-0.29269 0.18538,-0.587138 0.21323,-0.890978 0.0108,-0.118446 0,-0.237881 0,-0.356822 0,-0.347004 0,-0.69401 0,-1.041014 0,-0.143587 -0.007,-0.287335 0,-0.43076 0.009,-0.183732 0.064,-0.386784 0.0359,-0.574352 -0.0117,-0.07801 -0.14201,-0.611423 -0.17948,-0.753835 -0.0134,-0.05079 -0.12792,-0.496798 -0.17949,-0.610248 -0.0963,-0.211813 -0.39579,-0.649034 -0.64614,-0.717939 -0.0377,-0.01037 -0.0782,0 -0.11727,0 -0.0428,-0.01162 -0.086,-0.02164 -0.12837,-0.03484 -0.008,-0.0024 -0.19252,-0.0716 -0.20044,-0.06986 -0.0183,0.004 0.006,0.03861 0,0.0563 -0.0169,0.04774 -0.0453,0.09057 -0.0679,0.135852 -0.0239,0.107691 -0.0415,0.216998 -0.0718,0.323073 -0.10823,0.378798 -0.2869,0.750702 -0.32308,1.148699 -0.0152,0.166833 0,0.335039 0,0.50256 0,0.168648 -0.018,0.36227 0.0348,0.526576 0.041,0.127355 0.12413,0.237181 0.17949,0.358968 0.13746,0.302424 -0.009,0.06853 0.21538,0.394867 0.94575,1.37563 2.36228,2.6754927 3.94866,3.2307227 0.56094,0.19633 1.1703,0.33427 1.75895,0.39487 0.77796,0.0801 1.52489,0.15397 2.2974,0.0718 0.86965,-0.0925 1.34078,-0.2208 2.22561,-0.43076 1.03516,-0.24564 0.60145,-0.12481 1.43588,-0.43077 0.41879,-0.15355 1.04622,-0.34139 1.39998,-0.61024 0.20254,-0.15393 0.39447,-0.3226797 0.57435,-0.5025597 0.061,-0.061 0.0957,-0.14359 0.14359,-0.215382 0.43621,-0.654331 0.19986,-0.207285 0.46666,-1.041014 0.0311,-0.09737 0.0917,-0.18619 0.10769,-0.287173 0.0355,-0.224566 0,-0.454695 0,-0.682043 0,-0.279398 0.0387,-0.560449 -0.0718,-0.825627 -0.12069,-0.289637 -0.56283,-0.632048 -0.82564,-0.789734 -0.0708,-0.04246 -0.35722,-0.170074 -0.39486,-0.179485 -0.12769,-0.03193 -0.26325,0 -0.39487,0 -0.25128,0 -0.50256,0 -0.75383,0 -0.10769,0 -0.21566,0.0077 -0.32307,0 -0.0609,-0.0043 -0.11878,-0.02982 -0.17949,-0.0359 -0.30428,-0.03043 -0.59048,0.05533 -0.82563,0.25128 -0.18344,0.152871 -0.53122,0.541745 -0.57435,0.789728 -0.0308,0.176832 0,0.358971 0,0.538456 0,0.173451 -0.0119,0.547204 0.0359,0.717937 0.10406,0.371639 0.38001,0.873664 0.57435,1.184597 0.11463,0.183412 0.25447,0.268777 0.39486,0.43077 0.0894,0.10309 0.15481,0.2266 0.25128,0.32307 0.0728,0.0728 0.16828,0.11861 0.25128,0.1794797 0.98694,0.72375 1.32051,0.83827 2.69227,1.32819 0.39936,0.14262 0.80119,0.29559 1.22049,0.35897 0.5266,0.0796 2.10636,0.10885 2.83586,0.14359 0.91912,0.0438 1.84257,0.11185 2.76406,0.0718 0.82821,-0.036 1.56503,-0.0924 2.29741,-0.50256 0.15057,-0.0843 0.3053,-0.16869 0.43076,-0.28718 0.0941,-0.0889 0.13884,-0.2187 0.21538,-0.32307 0.0553,-0.0754 0.12895,-0.13677 0.17949,-0.21538 0.20734,-0.32253 0.264,-0.7160097 0.35897,-1.0769097 0.20678,-0.785764 0.19558,-0.764439 0.28717,-1.794845 0.0117,-0.131104 0,-0.263245 0,-0.394864 0,-0.415457 0.0368,-0.834025 -0.14358,-1.220499 -0.089,-0.190707 -0.24624,-0.43301 -0.43077,-0.538454 -0.29841,-0.170521 -1.11923,-0.249349 -1.47177,-0.143587 -0.37047,0.111144 -0.75221,0.348605 -1.00512,0.646147 -0.11176,0.131487 -0.1929,0.286213 -0.28717,0.43076 -0.32514,0.498541 -0.44751,0.758706 -0.39487,1.364084 0.0126,0.14502 0.002,0.302765 0.0718,0.430762 0.0928,0.171276 0.25326,0.297019 0.39487,0.430766 0.46207,0.436398 1.22733,0.494818 1.79485,0.610245 0.65767,0.133765 1.31195,0.286725 1.97432,0.394865 0.8773,0.14323 1.76843,0.21538 2.65638,0.21538 0.17949,0 0.35928,0.0105 0.53845,0 0.72667,-0.0427 1.3791,-0.19961 2.08203,-0.39486 0.10937,-0.0304 0.21369,-0.0773 0.32307,-0.107691 0.10629,-0.02953 0.218,-0.03817 0.32307,-0.07179 0.70719,-0.226303 1.22695,-0.514667 1.72305,-1.07691 0.0876,-0.09933 0.22316,-0.35996 0.28718,-0.466659 0.0222,-0.03699 0.0593,-0.06641 0.0718,-0.10769 0.0406,-0.133657 0.0928,-0.440264 -0.0693,-0.53072 -0.0161,-0.009 -0.0387,0.0078 -0.0554,0 -0.0836,-0.03905 -0.14905,-0.122454 -0.24001,-0.137954 -0.11855,-0.02019 -0.24489,-0.0021 -0.35897,0.0359 -0.57972,0.193241 -0.74202,0.322564 -1.04101,0.789734 -0.1217,0.190156 -0.274,0.365183 -0.35897,0.574349 -0.12974,0.31936 -0.10769,0.608452 -0.10769,0.933321 0,0.14359 -0.0422,0.29353 0,0.43077 0.0879,0.2855497 0.49023,0.8005397 0.71794,0.9692097 0.15915,0.1179 0.35983,0.16569 0.53845,0.25128 0.97022,0.4649 1.38768,0.73732 2.44099,1.00511 0.28049,0.0713 0.5726,0.091 0.86153,0.1077 0.72321,0.0417 1.19053,-0.0111 1.86664,-0.1077 0.27475,-0.0392 0.55186,-0.0621 0.82562,-0.10769 0.44446,-0.0741 0.89196,-0.13846 1.32819,-0.25128 0.5129,-0.13264 1.47932,-0.62068 1.90254,-0.96921 0.1045,-0.0861 0.19611,-0.18701 0.28717,-0.28718 0.14842,-0.16325 0.32593,-0.30842 0.43077,-0.5025597 0.22173,-0.41061 0.43261,-0.837787 0.53845,-1.292285 0.10056,-0.431819 0.0584,-0.885013 0.0718,-1.328185 0.013,-0.430567 0.0309,-0.862634 0,-1.292291 -0.006,-0.08335 -0.0283,-0.164904 -0.0359,-0.248126 -0.004,-0.04766 0.007,-0.0962 0,-0.143587 -0.005,-0.03746 -0.0291,-0.07047 -0.0359,-0.107688 -0.009,-0.04834 0,-0.09828 0,-0.14742 0.20665,-0.582625 0.10819,-1.151235 0.13774,-1.742371 0.005,-0.09635 0.0299,-0.190895 0.0359,-0.287178 0.0119,-0.191077 0.0127,-0.383323 0,-0.574349 -0.0305,-0.458056 -0.31324,-1.10298 -0.64614,-1.435877 -0.14298,-0.142989 -0.29891,-0.189322 -0.46666,-0.287175 -0.61416,-0.35826204 0.0991,-0.01221 -0.82563,-0.35897104 -0.11034,-0.04138 -0.21135,-0.106069 -0.32307,-0.143587 -0.10609,-0.03563 -0.33706,0.01409 -0.46346,0 -0.0699,-0.0078 -0.15927,-0.04629 -0.23755,-0.0359 -0.0681,0.009 -0.13503,0.04329 -0.20324,0.03482 -0.0199,-0.0025 0.006,-0.04109 0,-0.06006 -0.0275,-0.08116 -0.0661,-0.158086 -0.10037,-0.236627 -0.0471,-0.108032 -0.0926,-0.21683 -0.14358,-0.323072 -0.38679,-0.805802 -0.13298,-0.333553 -0.50256,-0.861526 -0.16228,-0.23183096 -0.29383,-0.48558596 -0.50256,-0.68204096 -0.12384,-0.116555 -0.26324,-0.215382 -0.39486,-0.323073 -0.3106,-0.254124 -0.65127,-0.57155 -1.07691,-0.610246 -0.0715,-0.0065 -0.14373,0.0045 -0.21538,0 -0.092,-0.0057 -0.44077,-0.05816 -0.57435,-0.0359 -0.0746,0.01244 -0.14359,0.04786 -0.21539,0.07179 -0.17223,0.05741 -0.40922,0.126465 -0.57435,0.215381 -0.076,0.04091 -0.14139,0.09919 -0.21538,0.143587 -0.10564,0.06338 -0.22452,0.105569 -0.32307,0.179485 -0.28368,0.212758 -0.47323,0.473234 -0.71794,0.717939 -0.0239,0.02393 -0.0479,0.04786 -0.0718,0.07179 -0.0239,0.02393 -0.038,0.07375 -0.0718,0.07179 -0.007,-3.91e-4 -0.13671,-0.216011 -0.15578,-0.249307 -0.18814,-0.328484 -0.23716,-0.467467 -0.50255,-0.789733 -0.21542,-0.261578 -0.43403,-0.52293 -0.68205,-0.753837 -0.10213,-0.09509 -0.23721,-0.1472 -0.35897,-0.215381 -0.38134,-0.21355 -0.83683,-0.458611 -1.25639,-0.574352 -0.10381,-0.02864 -0.21538,0 -0.32307,0 -0.17948,0 -0.35922,-0.0094 -0.53845,0 -0.27587,0.01452 -0.55562,0.01342 -0.82563,0.0718 -0.48814,0.105543 -1.25367,0.710761 -1.61537,1.041008 -0.1064,0.09715 -0.18529,0.22119 -0.28717,0.323073 -0.11383,0.113832 -0.241,0.213533 -0.35897,0.323073 -0.0747,0.06938 -0.16814,0.229957 -0.2525,0.172679 -0.15852,-0.107634 -0.27934,-0.242678 -0.3761,-0.412003 -0.0452,-0.07912 -0.0645,-0.171041 -0.1077,-0.251276 -0.10227,-0.189929 -0.23931,-0.358972 -0.35896,-0.538457 -0.17775,-0.266622 -0.21845,-0.373412 -0.46666,-0.574348 -0.16001,-0.129531 -0.3198,-0.264208 -0.50256,-0.358971 -0.22391,-0.116102 -0.64769,-0.179705 -0.89742,-0.215381 -0.29129,-0.04161 -1.05743,-0.124666 -1.36409,-0.07179 -0.19766,0.03408 -0.38766,0.106143 -0.57435,0.179486 -0.14942,0.0587 -0.28717,0.143587 -0.43076,0.215381 -0.40545,0.202726 -0.81181,0.42109 -1.1846,0.68204 -0.15312,0.107186 -0.27376,0.257563 -0.43076,0.358971 -0.0128,0.0083 -0.0215,-0.0215 -0.0323,-0.03225 -0.0454,-0.04543 -0.0909,-0.09087 -0.1363,-0.136301 -0.13969,-0.139691 -0.59408,-0.644271 -0.78973,-0.753837 -0.48032,-0.268977 -1.05107,-0.347344 -1.57947,-0.46666 -0.60593,-0.136825 -1.24426,-0.262278 -1.86664,-0.287174 -0.17934,-0.0072 -0.35897,0 -0.53845,0 -0.481,0 -0.76392,-0.0208 -1.29229,0.143587 -0.0476,0.0148 -1.12983,0.563882 -1.25639,0.646145 -0.2495,0.162173 -0.43695,0.523808 -0.53846,0.789733 -0.0171,0.0447 -0.0253,0.09246 -0.0331,0.139684 -0.003,0.02056 0.01,0.04411 0,0.06249 -0.006,0.01071 -0.0169,-0.03098 -0.0834,-0.08338 -0.0339,-0.0267 -0.0752,-0.04338 -0.10769,-0.07179 -0.34887,-0.30526 -0.0958,-0.237289 -0.75384,-0.574351 -0.74105,-0.379565 -1.63051,-0.588433 -2.44098,-0.753835 -0.71391,-0.145694 -0.92938,-0.143587 -1.57947,-0.143587 -0.30676,0 -0.79592,-0.04748 -1.07691,0.143587 -0.21036,0.143048 -0.38238,0.335629 -0.57435,0.502555 -0.0832,0.07239 -0.17903,0.132018 -0.25128,0.215384 -0.0848,0.09781 -0.1386,0.218874 -0.21538,0.32307 -0.23801,0.323015 -0.23515,0.306949 -0.46666,0.538456 -0.0479,0.04786 -0.0825,0.114519 -0.14358,0.143588 -0.0109,0.0052 -0.017,-0.01701 -0.0255,-0.02552 -0.0455,-0.04548 -0.091,-0.09096 -0.13645,-0.136441 -0.19447,-0.194474 -0.38152,-0.471445 -0.64614,-0.574351 -0.13794,-0.05364 -0.2908,-0.05958 -0.43076,-0.107693 -0.24375,-0.08379 -0.47661,-0.196673 -0.71794,-0.287174 -0.62793,-0.235471 -1.273,-0.441071 -1.93844,-0.538453 -0.20162,-0.02951 -0.4066,-0.02888 -0.61024,-0.0359 -0.41702,-0.01438 -0.83916,0 -1.25639,0 -0.38249,0 -0.66357,0.0019 -1.00512,0.215384 -0.13329,0.08331 -0.3137,0.367463 -0.39486,0.46666 -0.13708,0.167541 -0.0925,0.0464 -0.21539,0.251276 -0.0909,0.151495 -0.17062,0.309478 -0.25127,0.466663 -0.0266,0.0519 -0.054,0.104503 -0.0688,0.160924 -0.008,0.02976 0.0182,0.06747 0,0.09231 -0.0313,0.04277 -0.0634,-0.05705 -0.17225,-0.134809 -0.10028,-0.07163 -0.39993,-0.162746 -0.46643,-0.179369 -0.0821,-0.02052 -0.16795,-0.02119 -0.25128,-0.03589 -0.6329,-0.111687 -0.1128,-0.07179 -0.96921,-0.07179 -0.38211,0 -0.81543,-0.05661 -1.1846,0.07179 -0.15163,0.05274 -0.2901,0.138016 -0.43076,0.215381 -0.0989,0.0544 -0.20981,0.09728 -0.28718,0.179485 -0.280982,0.298541 -0.378002,0.66733 -0.502562,1.041009 -0.11965,0.35897 -0.23931,0.71793996 -0.35897,1.07690996 -0.0482,0.144512 -0.0811,0.25751 -0.14358,0.394866 -0.072,0.158283 -0.19745,0.323235 -0.21539,0.502555 -0.0147,0.147056 0.0322,0.339341 0,0.48678704 -0.0236,0.10778 -0.0638,0.246816 -0.033,0.360772 0.0272,0.100788 0.11001,0.117901 0.17898,0.187785 0.1136,0.115107 0.0913,0.176969 0.0913,0.321827 0.0972,0.181237 0.19434,0.362473 0.29151,0.54371 z"
       id="path5232" />
    <path
       id="path5234"
       style="fill:#1e1e1e;fill-opacity:1;stroke:#252525;stroke-width:1.514;stroke-linecap:round;stroke-linejoin:round;stroke-opacity:1"
       d="m 126.84603,54.794905 -4.42387,3.99618 -4.59083,-3.87258 c -0.0968,-0.064 9.0147,-0.1236 9.0147,-0.1236 z"
       sodipodi:nodetypes="cccc" />
    <path
       style="fill:#3e3e3e;stroke:#2f2f2f;stroke-width:1.141;stroke-linecap:round;stroke-linejoin:round"
       d="M 113.40919,55.352535 H 100.77176"
       id="path5236" />
    <path
       style="fill:#3e3e3e;stroke:#2f2f2f;stroke-width:1.141;stroke-linecap:round;stroke-linejoin:round"
       d="M 115.21617,59.39561 H 102.57874"
       id="path5238" />
    <path
       style="fill:#3e3e3e;stroke:#2f2f2f;stroke-width:1.141;stroke-linecap:round;stroke-linejoin:round"
       d="m 132.12484,55.237937 h 12.63743"
       id="path5240" />
    <path
       style="fill:#3e3e3e;stroke:#2f2f2f;stroke-width:1.141;stroke-linecap:round;stroke-linejoin:round"
       d="m 130.31786,59.281012 h 12.63743"
       id="path5242" />
    <path
       id="path5192"
       style="fill:#005384;stroke:#00466f;stroke-width:2.05153;stroke-linecap:round;stroke-linejoin:round"
       d="m 78.692968,100.05896 3.87696,-8.992614 c 1.25139,-2.90258 6.33152,-1.44971 8.25016,1.06216 l 5.35688,46.238774 45.975352,-7.36669 c 3.121,-0.50008 2.59151,4.326 2.36421,7.47862 l -0.40757,5.65283 c 0,0 -64.754152,7.57432 -64.584312,7.91627 l -1.82911,-44.24205 c -0.13057,-3.15811 -0.25394,-4.84469 0.99743,-7.74726 z"
       sodipodi:nodetypes="ssscssccsss"
       inkscape:transform-center-x="-40.541024"
       inkscape:transform-center-y="32.192617" />
    <path
       id="path5244"
       style="fill:#005384;stroke:#00466f;stroke-width:2.05153;stroke-linecap:round;stroke-linejoin:round"
       d="m 171.69589,99.304576 -3.87696,-8.99261 c -1.25139,-2.90258 -6.33152,-1.44971 -8.25016,1.06216 l -4.73428,49.178664 -47.30369,-15.18927 -10.334662,0.35904 c -3.1589,0.10974 -1.4324,5.54467 -0.95766,8.66962 l 0.56048,3.68928 71.035642,18.75823 4.85872,-49.78785 c 0.307,-3.14585 0.25394,-4.84469 -0.99743,-7.747264 z"
       sodipodi:nodetypes="sssccssccss"
       inkscape:transform-center-x="40.54102"
       inkscape:transform-center-y="32.192617" />
    <g
       id="g5249"
       transform="rotate(-11.910447,-131.05367,-1314.2614)">
      <path
         style="fill:#3e3e3e;fill-opacity:1;stroke:#2f2f2f;stroke-width:1.1748;stroke-linecap:round;stroke-linejoin:round;stroke-dasharray:none;stroke-opacity:1"
         id="path5194"
         sodipodi:type="arc"
         sodipodi:cx="190.7112"
         sodipodi:cy="134.47731"
         sodipodi:rx="16.142618"
         sodipodi:ry="10.94175"
         sodipodi:start="3.4726293"
         sodipodi:end="3.4528547"
         sodipodi:open="true"
         sodipodi:arc-type="arc"
         d="m 175.44503,130.92098 a 16.142618,10.94175 0 0 1 20.43736,-6.8088 16.142618,10.94175 0 0 1 10.14611,13.81897 16.142618,10.94175 0 0 1 -20.33705,6.94544 16.142618,10.94175 0 0 1 -10.34718,-13.7503"
         transform="matrix(-0.98940691,0.14516875,0.26316232,0.96475157,0,0)" />
      <path
         style="fill:#1b1b1b;fill-opacity:1;stroke:#2f2f2f;stroke-width:1.29192;stroke-linecap:round;stroke-linejoin:round;stroke-dasharray:none;stroke-opacity:1"
         d="m -141.63656,163.99721 v -4.5549"
         id="path5222" />
      <path
         style="fill:#1b1b1b;fill-opacity:1;stroke:#2f2f2f;stroke-width:1.60297;stroke-linecap:round;stroke-linejoin:round;stroke-dasharray:none;stroke-opacity:1"
         d="m -147.91563,167.08971 v -7.01234"
         id="path5224" />
    </g>
  </g>
</svg>
